<?xml version="1.0" encoding="utf-8"?>
<!-- Generator: Adobe Illustrator 21.1.0, SVG Export Plug-In . SVG Version: 6.00 Build 0)  -->
<svg version="1.1" id="Layer_1" xmlns="http://www.w3.org/2000/svg" xmlns:xlink="http://www.w3.org/1999/xlink" x="0px" y="0px"
	 viewBox="0 0 400 400" style="enable-background:new 0 0 400 400;" xml:space="preserve">
<style type="text/css">
	.st0{fill:#E6E7E8;}
	.st1{fill:#FFFFFF;}
	.st2{fill:#002F52;}
	.st3{fill:#F3CB4E;}
	.st4{fill:none;}
	.st5{clip-path:url(#SVGID_2_);fill:#F3CB4E;}
	.st6{clip-path:url(#SVGID_2_);fill:#1E2A5A;}
	.st7{clip-path:url(#SVGID_2_);fill:#002F52;}
</style>
<g>
	<g>
		<defs>
			<rect id="SVGID_1_" x="55.1" y="54.3" width="288.9" height="288.9"/>
		</defs>
		<clipPath id="SVGID_2_">
			<use xlink:href="#SVGID_1_"  style="overflow:visible;"/>
		</clipPath>
		<path class="st5" d="M199.5,302c57,0,103.2-46.2,103.2-103.2S256.5,95.6,199.5,95.6S96.3,141.8,96.3,198.8S142.5,302,199.5,302"/>
		<path class="st6" d="M258.4,83.9c0.6-0.2,1-0.6,1.4-1.3c0.2-0.3,0.3-0.6,0.3-0.9c0.1-0.3,0-0.6-0.1-0.9c-0.1-0.3-0.3-0.5-0.6-0.8
			c-0.3-0.3-0.7-0.5-1.2-0.8l-1.4-0.7l-2.1,4.2l1.9,0.9C257.2,84,257.9,84.1,258.4,83.9"/>
		<path class="st6" d="M72,178.9c-0.1-0.2-0.3-0.3-0.5-0.4c-0.2-0.1-0.4-0.2-0.7-0.2c-0.2,0-0.4,0-0.6,0c-0.2,0-0.4,0.1-0.6,0.2
			c-0.2,0.1-0.3,0.3-0.4,0.5c-0.1,0.2-0.2,0.5-0.2,0.8l-0.3,2.4l3.4,0.5l0.3-2.4c0-0.3,0-0.6,0-0.8C72.3,179.3,72.2,179.1,72,178.9"
			/>
		<path class="st6" d="M83.5,154.1c-0.6-0.5-1.3-0.9-2.1-1.1c-0.8-0.3-1.5-0.4-2.2-0.3c-0.7,0-1.4,0.2-2,0.5
			c-0.6,0.3-1.2,0.7-1.6,1.2c-0.5,0.5-0.8,1.1-1.1,1.8c-0.2,0.7-0.3,1.4-0.3,2.1c0.1,0.7,0.3,1.3,0.6,2c0.3,0.6,0.8,1.2,1.3,1.6
			c0.6,0.5,1.2,0.8,2,1.1c0.8,0.3,1.6,0.4,2.3,0.3c0.8,0,1.5-0.2,2.1-0.5c0.6-0.3,1.2-0.7,1.7-1.2c0.5-0.5,0.8-1.1,1.1-1.8
			c0.2-0.7,0.3-1.4,0.2-2.1c-0.1-0.7-0.3-1.4-0.6-2C84.6,155.2,84.1,154.6,83.5,154.1"/>
		<path class="st6" d="M218.4,70.7c0.2-0.1,0.4-0.2,0.6-0.3c0.2-0.1,0.3-0.3,0.4-0.5c0.1-0.2,0.2-0.4,0.2-0.7c0-0.2,0-0.4,0-0.6
			c0-0.2-0.1-0.4-0.2-0.6c-0.1-0.2-0.3-0.3-0.5-0.4c-0.2-0.1-0.5-0.2-0.8-0.2l-2.4-0.3l-0.4,3.4l2.4,0.3
			C218,70.8,218.2,70.8,218.4,70.7"/>
		<path class="st6" d="M218,78.5c0.3-0.1,0.5-0.2,0.7-0.4c0.2-0.2,0.3-0.4,0.5-0.6c0.1-0.2,0.2-0.5,0.2-0.8c0-0.3,0-0.5,0-0.8
			c-0.1-0.3-0.2-0.5-0.3-0.7c-0.1-0.2-0.3-0.4-0.6-0.5c-0.2-0.1-0.5-0.2-0.9-0.3l-2.9-0.4l-0.5,4l2.8,0.4
			C217.4,78.6,217.7,78.6,218,78.5"/>
		<path class="st6" d="M111.8,107.3c0.5,0.6,1.2,1.1,1.8,1.4c0.7,0.3,1.4,0.6,2.1,0.6c0.7,0.1,1.4,0,2.1-0.2c0.7-0.2,1.3-0.5,1.8-1
			c0.5-0.5,1-1,1.2-1.7c0.3-0.6,0.4-1.3,0.4-2c0-0.7-0.1-1.4-0.4-2.1c-0.3-0.7-0.7-1.4-1.2-2c-0.5-0.6-1.1-1.1-1.8-1.4
			c-0.7-0.3-1.3-0.5-2-0.6c-0.7-0.1-1.4,0-2,0.2c-0.7,0.2-1.3,0.6-1.8,1c-0.5,0.5-1,1.1-1.3,1.7c-0.3,0.6-0.4,1.3-0.5,2
			c0,0.7,0.1,1.4,0.3,2.1C110.9,106.1,111.2,106.7,111.8,107.3"/>
		<path class="st6" d="M79.8,179.3c-0.2-0.2-0.4-0.3-0.6-0.5c-0.2-0.1-0.5-0.2-0.8-0.2c-0.3,0-0.5,0-0.8,0c-0.2,0.1-0.5,0.1-0.7,0.3
			c-0.2,0.1-0.4,0.3-0.5,0.6c-0.1,0.2-0.2,0.5-0.3,0.9l-0.4,2.9l4,0.5l0.4-2.8c0-0.3,0-0.7,0-0.9C80.1,179.8,80,179.5,79.8,179.3"/>
		<path class="st7" d="M87.4,266.3l-6.9-0.4c0-0.1-0.1-0.2-0.1-0.3l6.1-3.8l-1.7-7.1l5.6,4.8l6.5-4l-3,6.7l5.6,4.9l-7.3-0.4
			l-2.9,6.7L87.4,266.3z M71.5,226.3l-6.4-2.6c0-0.1,0-0.2,0-0.3l7-1.5l0.8-7.3l3.7,6.4l7.5-1.5l-5.1,5.3l3.6,6.5l-6.8-2.8l-5,5.3
			L71.5,226.3z M309.9,273.4l-2.9-6.7l-7.3,0.4l5.6-4.9l-3-6.7l6.5,4l5.6-4.8l-1.7,7.1l6.1,3.8c0,0.1-0.1,0.2-0.1,0.3l-6.9,0.4
			L309.9,273.4z M336.1,186.8c-0.1,0.3-0.2,0.6-0.3,0.9c-0.3,0.6-0.6,1.2-0.9,1.7l-4.1-1.6c0.3-0.4,0.5-0.9,0.7-1.4
			c0.2-0.4,0.3-0.9,0.4-1.4c0.1-0.5,0.2-1.1,0.1-1.7c0-0.2-0.1-0.5-0.2-0.7c-0.1-0.2-0.2-0.5-0.3-0.6s-0.3-0.3-0.5-0.4
			c-0.2-0.1-0.4-0.1-0.7-0.1c-0.3,0-0.6,0.2-0.8,0.5c-0.2,0.3-0.4,0.6-0.5,1.1c-0.2,0.4-0.3,0.9-0.4,1.5c-0.1,0.5-0.3,1.1-0.5,1.7
			c-0.2,0.6-0.4,1.1-0.6,1.7c-0.3,0.6-0.6,1.1-0.9,1.5c-0.4,0.5-0.8,0.8-1.4,1.1c-0.5,0.3-1.2,0.5-2,0.6c-0.8,0.1-1.6,0-2.4-0.2
			c-0.8-0.2-1.4-0.6-2-1.1c-0.6-0.5-1.1-1.2-1.5-2c-0.4-0.8-0.7-1.8-0.8-2.8c-0.1-0.6-0.1-1.1-0.1-1.6c0-0.5,0.1-1,0.2-1.4
			c0.1-0.5,0.2-0.9,0.3-1.3c0.1-0.4,0.3-0.7,0.4-1.1c0.3-0.7,0.7-1.4,1.2-2l3.9,2.1c-0.3,0.5-0.6,1-0.8,1.5
			c-0.1,0.2-0.2,0.5-0.3,0.7c-0.1,0.3-0.2,0.5-0.2,0.8s-0.1,0.6-0.1,0.9c0,0.3,0,0.6,0,0.9c0,0.2,0.1,0.5,0.2,0.7
			c0.1,0.2,0.2,0.4,0.3,0.6c0.1,0.2,0.3,0.3,0.5,0.4c0.2,0.1,0.5,0.1,0.8,0.1c0.3,0,0.5-0.2,0.7-0.5c0.2-0.3,0.4-0.6,0.5-1.1
			c0.2-0.4,0.3-0.9,0.5-1.5c0.1-0.5,0.3-1.1,0.5-1.7c0.2-0.6,0.4-1.1,0.7-1.7c0.3-0.6,0.6-1.1,1-1.5c0.4-0.5,0.8-0.8,1.4-1.2
			c0.5-0.3,1.2-0.5,1.9-0.6c0.9-0.1,1.7,0,2.5,0.3c0.8,0.3,1.4,0.7,2,1.2c0.6,0.6,1.1,1.2,1.4,2c0.4,0.8,0.6,1.7,0.7,2.6
			c0.1,0.5,0.1,1,0.1,1.5c0,0.5,0,0.9-0.1,1.3C336.2,186.1,336.1,186.5,336.1,186.8 M328.3,233.7l-5-5.3l-6.8,2.8l3.6-6.5l-5.1-5.3
			l7.5,1.5l3.7-6.4l0.8,7.3l7,1.5c0,0.1,0,0.2,0,0.3l-6.4,2.6L328.3,233.7z M192.9,308.1c-60.2-3.6-106.1-55.4-102.5-115.7
			C94,132.2,145.8,86.3,206.1,89.9c60.2,3.6,106.1,55.4,102.5,115.7C305,265.8,253.2,311.7,192.9,308.1 M280.2,309.3L268.3,294
			l9.6-7.4l2.5,3.2l-5.9,4.5l2.1,2.8l4.7-3.6l2.5,3.2l-4.7,3.6l2.2,2.9l6.1-4.7l2.5,3.2L280.2,309.3z M264.4,318.8l-7.3-13.4
			l-5.2,2.8l-1.9-3.6l14.4-7.9l1.9,3.6l-5.1,2.8l7.3,13.4L264.4,318.8z M249.4,323.8c-0.5,0.8-1.1,1.6-1.9,2.3
			c-0.8,0.7-1.8,1.2-3,1.6c-1.2,0.4-2.3,0.6-3.3,0.6c-1.1,0-2-0.2-2.9-0.6c-0.9-0.4-1.6-1-2.3-1.7c-0.7-0.7-1.2-1.6-1.5-2.7
			l-3.9-11.6l4.5-1.5l3.9,11.6c0.2,0.5,0.4,0.9,0.7,1.2c0.3,0.3,0.6,0.6,1,0.7c0.4,0.2,0.8,0.2,1.2,0.2c0.4,0,0.9-0.1,1.4-0.3
			c0.5-0.2,0.9-0.4,1.3-0.6c0.3-0.3,0.6-0.6,0.8-0.9c0.2-0.3,0.3-0.7,0.3-1.1c0-0.4,0-0.9-0.2-1.4l-3.9-11.6l4.5-1.5l3.9,11.6
			c0.3,1,0.5,2,0.4,3C250.1,322.1,249.8,323,249.4,323.8 M223.3,332.8l-4.7,0.7l-2.3-15.1l-5.8,0.9l-0.6-4l16.3-2.5l0.6,4l-5.8,0.9
			L223.3,332.8z M206,335l-11.9,0l0-4.2l3.4,0l0-11.1l-3.5,0l0-4.2l11.9,0l0,4.2l-3.6,0l0,11.1l3.7,0L206,335z M188.9,319.3
			l-5.8-0.9l-2.3,15.1l-4.7-0.7l2.3-15.1l-5.8-0.9l0.6-4l16.3,2.5L188.9,319.3z M160,315.3c0.2,0.3,0.4,0.6,0.7,0.9
			c0.3,0.3,0.7,0.6,1.1,1c0.4,0.3,0.9,0.7,1.3,1.1c0.4,0.4,0.9,0.8,1.3,1.3c0.4,0.5,0.7,0.9,1,1.5c0.3,0.5,0.4,1.1,0.5,1.7
			c0.1,0.6,0,1.3-0.3,2c-0.2,0.8-0.6,1.5-1.1,2.1c-0.5,0.6-1.1,1.1-1.8,1.4c-0.7,0.3-1.5,0.5-2.4,0.6c-0.9,0.1-1.9-0.1-2.9-0.4
			c-0.5-0.2-1-0.4-1.5-0.6c-0.5-0.2-0.9-0.5-1.2-0.7c-0.4-0.3-0.7-0.5-1-0.8c-0.3-0.3-0.6-0.5-0.8-0.8c-0.5-0.6-1-1.2-1.3-1.9
			l3.5-2.7c0.3,0.5,0.6,1,1,1.4c0.2,0.2,0.3,0.4,0.5,0.6c0.2,0.2,0.4,0.4,0.7,0.5c0.2,0.2,0.5,0.3,0.7,0.5s0.5,0.3,0.8,0.4
			c0.2,0.1,0.5,0.1,0.7,0.1c0.2,0,0.5,0,0.7,0c0.2-0.1,0.4-0.2,0.6-0.3c0.2-0.2,0.3-0.4,0.4-0.6c0.1-0.3,0-0.6-0.1-0.8
			c-0.2-0.3-0.4-0.6-0.7-0.9c-0.3-0.3-0.7-0.7-1.1-1c-0.4-0.4-0.9-0.7-1.3-1.1s-0.9-0.8-1.3-1.3c-0.4-0.5-0.7-1-1-1.5
			c-0.3-0.5-0.4-1.1-0.5-1.7c-0.1-0.6,0-1.3,0.2-2c0.3-0.9,0.7-1.6,1.2-2.2c0.6-0.6,1.2-1,2-1.3c0.7-0.3,1.6-0.5,2.4-0.5
			c0.9,0,1.8,0.1,2.7,0.4c0.5,0.2,0.9,0.3,1.4,0.5c0.4,0.2,0.8,0.4,1.1,0.6c0.3,0.2,0.6,0.4,0.9,0.7c0.3,0.2,0.5,0.4,0.7,0.6
			c0.5,0.5,0.9,1,1.1,1.5l-3.1,3.1c-0.3-0.4-0.6-0.8-1-1.2c-0.3-0.3-0.7-0.6-1.1-1c-0.4-0.3-0.9-0.6-1.5-0.8
			c-0.2-0.1-0.5-0.1-0.7-0.1c-0.3,0-0.5,0-0.7,0.1c-0.2,0.1-0.4,0.2-0.6,0.3c-0.2,0.1-0.3,0.3-0.4,0.6
			C159.8,314.7,159.8,315,160,315.3 M139.4,321l-0.7-10.5c0-0.4,0-0.8,0-1.2c0-0.4,0-0.8,0-1.2c0-0.4,0-0.9,0.1-1.3l0,0
			c-0.2,0.4-0.3,0.8-0.5,1.1c-0.1,0.3-0.3,0.6-0.4,1c-0.2,0.3-0.3,0.7-0.4,0.9l-4.1,8l-4.2-2.2l8.8-17.2l4.3,2.2l0.6,10.5
			c0,0.4,0,0.8,0,1.2c0,0.4,0,0.8,0,1.2c0,0.4,0,0.9-0.1,1.3l0,0c0.1-0.4,0.3-0.7,0.4-1.1c0.1-0.3,0.3-0.6,0.4-1
			c0.2-0.3,0.3-0.7,0.4-0.9l4.1-8l4.2,2.2l-8.8,17.2L139.4,321z M124.5,307.9l-2.5,3.4l-9.6-6.9l2.5-3.4l2.7,1.9l6.6-9l-3-2.1
			l2.5-3.4l3,2.1l0,0l2.6,1.9l4.1,2.9l-2.5,3.4l-2.9-2l-6.6,9L124.5,307.9z M64.9,179.3c0.1-1,0.4-1.8,0.7-2.6
			c0.3-0.8,0.7-1.4,1.2-1.9c0.5-0.5,1.1-0.9,1.8-1.1c0.7-0.2,1.4-0.3,2.2-0.2c0.4,0.1,0.8,0.2,1.2,0.3c0.4,0.1,0.7,0.3,1.1,0.6
			c0.3,0.2,0.6,0.5,0.9,0.8c0.3,0.3,0.5,0.7,0.6,1.1l0.1,0c0.2-0.5,0.5-1,0.9-1.3c0.4-0.3,0.8-0.6,1.2-0.8c0.4-0.2,0.9-0.3,1.3-0.3
			c0.5-0.1,0.9,0,1.3,0c1,0.1,1.9,0.5,2.6,1c0.7,0.5,1.2,1.1,1.5,1.9c0.4,0.7,0.6,1.6,0.7,2.5c0.1,0.9,0.1,1.8-0.1,2.8l-1,7.1
			L64,186.4L64.9,179.3z M69.8,157.5c0.1-0.9,0.3-1.8,0.6-2.8c0.3-0.9,0.7-1.8,1.2-2.5c0.5-0.8,1.1-1.4,1.7-2
			c0.6-0.6,1.3-1.1,2.1-1.4c0.8-0.4,1.6-0.7,2.4-0.8c0.8-0.2,1.7-0.2,2.6-0.2c0.9,0.1,1.8,0.2,2.6,0.5c1.4,0.5,2.5,1.1,3.5,2
			c1,0.9,1.8,1.9,2.4,3c0.6,1.1,0.9,2.4,1,3.7c0.1,1.3-0.1,2.7-0.6,4.1c-0.5,1.4-1.1,2.6-2,3.6c-0.9,1-1.9,1.8-3.1,2.4
			c-1.2,0.6-2.4,0.9-3.7,1c-1.3,0.1-2.7-0.1-4-0.6c-0.9-0.3-1.7-0.7-2.4-1.2c-0.7-0.5-1.4-1.1-1.9-1.7c-0.6-0.6-1-1.3-1.4-2.1
			c-0.4-0.8-0.6-1.6-0.8-2.4C69.8,159.3,69.8,158.5,69.8,157.5 M79.4,134.7c0.2-0.9,0.5-1.7,0.9-2.6c0.3-0.5,0.5-0.9,0.8-1.2
			c0.3-0.4,0.6-0.7,0.8-1c0.3-0.3,0.6-0.5,0.8-0.8c0.3-0.2,0.5-0.4,0.8-0.6c0.6-0.4,1.2-0.7,1.7-0.8l2.4,3.6
			c-0.5,0.2-0.9,0.4-1.4,0.7c-0.4,0.2-0.8,0.5-1.2,0.9c-0.4,0.4-0.8,0.8-1,1.3c-0.1,0.2-0.2,0.4-0.3,0.7c-0.1,0.2-0.1,0.5-0.1,0.7
			c0,0.2,0.1,0.4,0.2,0.6c0.1,0.2,0.3,0.4,0.5,0.5c0.3,0.2,0.6,0.2,0.9,0.1c0.3-0.1,0.7-0.3,1-0.6c0.4-0.3,0.8-0.6,1.2-0.9
			c0.4-0.4,0.9-0.7,1.4-1.1c0.5-0.4,1-0.7,1.5-1c0.5-0.3,1.1-0.5,1.6-0.7c0.6-0.1,1.2-0.2,1.8-0.1c0.6,0.1,1.3,0.3,1.9,0.6
			c0.7,0.4,1.3,0.9,1.8,1.5c0.5,0.6,0.8,1.3,1,2.1c0.2,0.8,0.2,1.6,0.1,2.5c-0.1,0.9-0.5,1.8-1,2.8c-0.3,0.5-0.6,1-0.9,1.4
			c-0.3,0.4-0.6,0.8-1,1.1c-0.3,0.3-0.6,0.6-1,0.9c-0.3,0.2-0.6,0.5-0.9,0.6c-0.7,0.4-1.4,0.7-2.1,0.9l-2-3.9
			c0.5-0.2,1.1-0.4,1.6-0.7c0.2-0.1,0.4-0.3,0.7-0.4c0.2-0.2,0.4-0.3,0.7-0.5c0.2-0.2,0.4-0.4,0.6-0.6c0.2-0.2,0.4-0.5,0.5-0.7
			c0.1-0.2,0.2-0.4,0.3-0.7c0.1-0.2,0.1-0.5,0.1-0.7c0-0.2-0.1-0.4-0.2-0.6c-0.1-0.2-0.3-0.4-0.6-0.5c-0.3-0.1-0.5-0.2-0.9,0
			c-0.3,0.1-0.7,0.3-1,0.6c-0.4,0.3-0.8,0.6-1.2,0.9c-0.4,0.4-0.9,0.7-1.4,1.1c-0.5,0.4-1,0.7-1.5,1c-0.5,0.3-1.1,0.5-1.7,0.7
			c-0.6,0.2-1.2,0.2-1.8,0.1c-0.6-0.1-1.3-0.3-1.9-0.6c-0.8-0.4-1.4-1-1.9-1.6c-0.5-0.7-0.8-1.4-0.9-2.2
			C79.3,136.4,79.3,135.6,79.4,134.7 M97.4,108.3l3.2,2.5l-3.6,4.6l12.1,9.4l-2.9,3.7L94,119.2l-3.6,4.7l-3.2-2.5L97.4,108.3z
			 M106.1,100.9c0.3-0.8,0.7-1.6,1.2-2.4c0.5-0.8,1.1-1.5,1.9-2.1c0.7-0.6,1.5-1.2,2.3-1.6c0.8-0.4,1.6-0.7,2.5-0.9
			c0.8-0.2,1.7-0.2,2.5-0.2c0.8,0,1.7,0.2,2.5,0.5c0.8,0.3,1.6,0.6,2.3,1.1c0.7,0.5,1.4,1.1,2,1.8c0.9,1.1,1.6,2.2,2.1,3.5
			c0.4,1.3,0.6,2.5,0.6,3.8c-0.1,1.3-0.4,2.5-1,3.8c-0.6,1.2-1.4,2.3-2.5,3.3c-1.1,1-2.3,1.7-3.6,2.1c-1.3,0.4-2.6,0.6-3.8,0.5
			c-1.3-0.1-2.5-0.4-3.7-1c-1.2-0.6-2.3-1.4-3.2-2.5c-0.6-0.7-1.1-1.4-1.5-2.2c-0.4-0.8-0.7-1.6-0.8-2.4c-0.2-0.8-0.2-1.7-0.2-2.5
			S105.8,101.7,106.1,100.9 M128.5,82.4l9.2,5.2c0.3,0.2,0.7,0.4,1,0.6c0.4,0.2,0.7,0.5,1,0.7c0.4,0.3,0.7,0.5,1.1,0.8l0,0
			c-0.2-0.3-0.5-0.7-0.7-1c-0.2-0.3-0.4-0.6-0.6-0.9c-0.2-0.3-0.4-0.6-0.6-0.9l-4.5-7.9l4.1-2.4l9.7,16.8l-4.1,2.4l-9.2-5.1
			c-0.3-0.2-0.7-0.4-1-0.6c-0.4-0.2-0.7-0.5-1-0.7c-0.4-0.2-0.7-0.5-1-0.8l0,0c0.2,0.3,0.5,0.7,0.7,1c0.2,0.3,0.4,0.6,0.6,0.9
			c0.2,0.3,0.4,0.6,0.5,0.9l4.5,7.8l-4.1,2.4l-9.7-16.8L128.5,82.4z M165,72.7c0.2-1.3,0.7-2.5,1.4-3.6c0.7-1.1,1.6-2,2.7-2.8
			c1.1-0.8,2.4-1.3,3.8-1.6c0.6-0.1,1.2-0.2,1.7-0.2c0.5,0,1,0,1.5,0s0.9,0.1,1.3,0.2c0.4,0.1,0.8,0.2,1.1,0.3
			c0.8,0.2,1.5,0.6,2.1,0.9l-1.4,4c-0.5-0.3-1-0.5-1.6-0.6c-0.5-0.1-1-0.3-1.7-0.3c-0.6-0.1-1.3,0-1.9,0.1c-0.9,0.2-1.7,0.5-2.3,1
			c-0.6,0.5-1.1,1-1.4,1.6c-0.3,0.6-0.5,1.3-0.6,2c-0.1,0.7,0,1.4,0.1,2.1c0.2,0.7,0.4,1.4,0.8,2c0.4,0.6,0.9,1.2,1.4,1.6
			c0.6,0.4,1.2,0.8,2,0.9c0.7,0.2,1.6,0.2,2.4,0c0.4-0.1,0.7-0.2,1-0.3c0.3-0.1,0.6-0.3,0.9-0.5c0.3-0.2,0.5-0.4,0.8-0.6
			c0.2-0.2,0.5-0.4,0.6-0.6c0.5-0.5,0.9-1,1.2-1.5l3.1,2.9c-0.4,0.7-0.9,1.4-1.6,2c-0.3,0.3-0.6,0.5-1,0.8c-0.4,0.3-0.8,0.5-1.2,0.8
			c-0.4,0.3-0.9,0.5-1.5,0.7c-0.5,0.2-1.1,0.4-1.7,0.5c-1.5,0.3-2.9,0.4-4.2,0.2c-1.3-0.2-2.5-0.7-3.6-1.4c-1.1-0.7-2-1.6-2.7-2.7
			c-0.7-1.1-1.3-2.3-1.6-3.8C164.8,75.3,164.8,74,165,72.7 M191.9,62.4l2.4,4.6c0.2,0.3,0.3,0.7,0.5,1c0.2,0.3,0.3,0.6,0.4,0.9
			c0.1,0.3,0.3,0.6,0.4,0.9l0.1,0c0.1-0.3,0.2-0.6,0.3-0.9c0.1-0.3,0.2-0.6,0.3-0.9c0.1-0.3,0.3-0.7,0.4-1l2-4.8l5.4-0.2l-5.9,11.7
			l0.3,8l-4.8,0.2l-0.3-8l-6.9-11.2L191.9,62.4z M211.4,62.4l7.1,0.9c1,0.1,1.8,0.3,2.6,0.7c0.8,0.3,1.4,0.7,1.9,1.2
			c0.5,0.5,0.9,1.1,1.1,1.7c0.2,0.7,0.3,1.4,0.2,2.2c-0.1,0.4-0.1,0.8-0.3,1.2c-0.1,0.4-0.3,0.8-0.6,1.1c-0.2,0.3-0.5,0.6-0.8,0.9
			c-0.3,0.3-0.7,0.5-1.1,0.6l0,0.1c0.5,0.2,1,0.5,1.3,0.9c0.3,0.4,0.6,0.8,0.8,1.2c0.2,0.4,0.3,0.9,0.4,1.3c0.1,0.5,0.1,0.9,0,1.3
			c-0.1,1.1-0.4,1.9-0.9,2.6c-0.5,0.7-1.1,1.2-1.8,1.6c-0.7,0.4-1.6,0.6-2.5,0.7c-0.9,0.1-1.8,0.1-2.8,0l-7.1-0.9L211.4,62.4z
			 M234.2,66.1l11.7,3.5l-1.2,3.9l-7.1-2.1l-1,3.4l5.7,1.7l-1.2,3.9l-5.7-1.7l-1,3.5l7.5,2.2l-1.2,3.9l-12-3.6L234.2,66.1z
			 M260.3,75.7c0.4,0.2,0.8,0.4,1.2,0.6c0.3,0.2,0.6,0.4,0.9,0.5c0.3,0.2,0.5,0.3,0.7,0.5c0.2,0.2,0.4,0.3,0.5,0.5
			c0.4,0.4,0.7,0.9,1,1.4c0.2,0.5,0.4,1,0.5,1.6c0.1,0.6,0,1.2-0.1,1.8c-0.1,0.6-0.3,1.2-0.6,1.9c-0.2,0.5-0.5,0.9-0.9,1.3
			c-0.3,0.4-0.7,0.8-1.2,1.1c-0.4,0.3-0.9,0.6-1.4,0.8c-0.5,0.2-1,0.3-1.5,0.3l0,0c0,0.1,0,0.2,0,0.3c0,0.1,0,0.3,0,0.4
			c0,0.2,0,0.4,0.1,0.6l0.4,7.8l-4.8-2.3l-0.2-7.4l-2-1l-2.9,5.9l-4.3-2.1l8.5-17.5L260.3,75.7z M279.4,86.9l-1.1,10.5
			c0,0.4-0.1,0.8-0.2,1.2c-0.1,0.4-0.1,0.8-0.2,1.2c-0.1,0.4-0.2,0.8-0.3,1.3l0,0c0.2-0.3,0.4-0.7,0.6-1c0.2-0.3,0.4-0.6,0.6-0.9
			c0.2-0.3,0.4-0.6,0.6-0.9l5.4-7.3l3.8,2.8l-11.6,15.6l-3.8-2.9l1.1-10.5c0-0.4,0.1-0.8,0.2-1.2c0.1-0.4,0.1-0.8,0.2-1.2
			c0.1-0.4,0.2-0.8,0.3-1.3l0,0c-0.2,0.3-0.4,0.7-0.6,1c-0.2,0.3-0.4,0.6-0.6,0.9c-0.2,0.3-0.4,0.6-0.6,0.9l-5.4,7.3l-3.8-2.8
			l11.6-15.6L279.4,86.9z M304.3,109.5l-3,2.8l-5.1-5.4l-2.6,2.4l4.1,4.3l-3,2.8l-4.1-4.3l-2.7,2.5l5.3,5.7l-3,2.8l-8.6-9.1
			l14.1-13.3L304.3,109.5z M308.6,114.6l9.3,13.7l-3.4,2.3l-3.3-4.9l-12.7,8.7l-2.7-3.9l12.7-8.7l-3.3-4.9L308.6,114.6z
			 M323.6,139.4l1,2.2l0,0l1.5,3.3l-3.9,1.8l-1.5-3.2l-9.9,4.7l1.5,3.2l-3.9,1.8l-5-10.8l3.9-1.8l1.5,3.3l9.9-4.7l-1.5-3.3l3.9-1.8
			L323.6,139.4z M330.4,157.8c0.8,1.1,1.5,2.3,1.9,3.7c0.2,0.6,0.3,1.1,0.4,1.7c0.1,0.5,0.1,1,0.1,1.5c0,0.5,0,0.9-0.1,1.3
			c-0.1,0.4-0.1,0.8-0.2,1.1c-0.2,0.8-0.5,1.5-0.8,2.2l-4.1-1.1c0.2-0.5,0.4-1.1,0.6-1.6c0.1-0.5,0.2-1.1,0.2-1.7
			c0-0.6,0-1.3-0.2-1.9c-0.3-0.9-0.6-1.6-1.1-2.2c-0.5-0.6-1.1-1-1.7-1.3c-0.6-0.3-1.3-0.5-2-0.5c-0.7,0-1.4,0.1-2.1,0.2
			c-0.7,0.2-1.3,0.5-1.9,0.9c-0.6,0.4-1.1,0.9-1.5,1.5c-0.4,0.6-0.7,1.3-0.8,2c-0.1,0.8-0.1,1.6,0.2,2.4c0.1,0.3,0.2,0.7,0.4,1
			c0.2,0.3,0.3,0.6,0.5,0.9c0.2,0.3,0.4,0.5,0.6,0.7c0.2,0.2,0.4,0.4,0.6,0.6c0.5,0.4,1,0.8,1.6,1.1l-2.7,3.3
			c-0.7-0.4-1.4-0.9-2.1-1.5c-0.3-0.3-0.6-0.6-0.9-0.9c-0.3-0.3-0.6-0.7-0.9-1.1c-0.3-0.4-0.5-0.9-0.8-1.4c-0.2-0.5-0.5-1.1-0.6-1.7
			c-0.4-1.5-0.6-2.9-0.4-4.2c0.1-1.3,0.5-2.6,1.1-3.7c0.6-1.1,1.5-2.1,2.5-2.9c1-0.8,2.3-1.4,3.6-1.8c1.4-0.4,2.7-0.5,4-0.3
			c1.3,0.2,2.5,0.5,3.6,1.2C328.6,155.9,329.5,156.7,330.4,157.8 M199.5,54.3c-79.8,0-144.4,64.7-144.4,144.4
			s64.7,144.4,144.4,144.4s144.4-64.7,144.4-144.4S279.3,54.3,199.5,54.3"/>
		<path class="st7" d="M141.6,209.8c0-1.7-0.7-3.2-1.9-4.2c-0.3-0.3-0.7-0.5-1-0.7c0,0-0.1,0-0.1,0c-0.8-0.4-1.6-0.7-2.6-0.7
			c-0.6,0-1.2,0.1-1.7,0.3c0,0,0,0-0.1,0c-2.2,0.8-3.8,2.8-3.8,5.3c0,3.1,2.5,5.6,5.6,5.6C139.1,215.4,141.6,212.9,141.6,209.8"/>
		<path class="st7" d="M171.7,189.5c1.7,0,3-1.3,3-3c0-1.7-1.3-3-3-3c-1.7,0-3,1.3-3,3C168.7,188.1,170.1,189.5,171.7,189.5"/>
		<path class="st7" d="M225.2,126.1c3.1,0,5.6-2.5,5.6-5.6c0-3.1-2.5-5.6-5.6-5.6c-3.1,0-5.6,2.5-5.6,5.6
			C219.6,123.5,222.1,126.1,225.2,126.1"/>
		<path class="st7" d="M182.3,206.6c0,3.1,2.5,5.6,5.6,5.6c3.1,0,5.6-2.5,5.6-5.6s-2.5-5.6-5.6-5.6
			C184.8,201,182.3,203.6,182.3,206.6"/>
		<path class="st7" d="M268.2,203.4c-3.2-4.8-6.4-9.6-9.5-14.5c-2.3-3.5-2.5-7-1.6-11.3c1.1-5,2.1-10.6,0.9-15.4
			c-3.9-16.1-11.6-29-24.4-37.4c-1.6,3-4.7,5.1-8.3,5.1c-2.6,0-4.9-1-6.6-2.7c-5.6,9.1-4.2,21,4.3,28.7c0.9,0.8,1.7,1.6,2.4,2.4
			c0.9-0.3,2-0.5,3-0.5c5.2,0,9.4,4.2,9.4,9.4s-4.2,9.4-9.4,9.4c-3.6,0-6.7-2-8.3-5c-1.1,0.1-2.3,0.1-3.6,0
			c-13.9-0.7-24.6,10.1-23.9,24c0.1,1,0.1,2,0,2.9c2.8,1.6,4.6,4.7,4.6,8.1c0,5.2-4.2,9.4-9.4,9.4c-2.2,0-4.2-0.7-5.8-2l-3.2,3.3
			v62.1c0.8,0.2,1.7,0.3,2.5,0.5l2.1,0.3c7.6,1.2,15.8,1.8,23,1.9c0.5,0,5,0.4,7.7-7.6c1.5-4.4,1.6-5.5,4.7-10.6
			c0.6-0.6,4.4-5.4,10.9-6c2.5-0.2,5.1-0.3,7.6-0.4c5.1-0.2,10.2-0.1,15.3-0.6c5-0.5,6.5-3,6.1-8c-0.3-2.7-0.6-5.5-0.5-8.2
			c0-1.3,0.7-2.9,1.6-3.7c2.3-2.1,3.6-4,0.6-6.5c3.6-2.6,3.6-2.8,1.9-6.7c-0.2-0.3-0.3-0.7-0.5-1c-2.1-4.7-1.9-5.1,2.8-7.2
			C272.7,212.1,273.1,210.9,268.2,203.4"/>
		<path class="st7" d="M164.4,275c0.1,0.1,0.3,0.1,0.3,0.2c0.9,0.4,1.8,0.8,2.8,1.2v-80.7c-1-0.4-2.1-0.7-3.1-0.9V275z"/>
		<path class="st7" d="M159.7,230.4c0,0.6-0.5,1-1,1c-0.6,0-1-0.5-1-1v-13.2c0-0.6,0.5-1,1-1c0.6,0,1,0.5,1,1V230.4z M155.1,194.9
			v2.8l4.7,5.5v7.8c0.1,0.1,0.2,0.1,0.3,0.2c0.5,0.8,0.3,1.8-0.5,2.3c-0.8,0.5-1.8,0.3-2.3-0.5c-0.5-0.8-0.3-1.8,0.5-2.3V204
			l-2.6-3.1v40.5c0.3,1,0.7,2.6,1.1,4.5c0.1,1.1,2.6,11.4,2.3,16.5c-0.3,5.1,1,8.1,2.3,9.8c0.3,0.5,0.9,1,1.5,1.4v-39.8l-2.5,3.7
			v5.1c0.1,0.1,0.3,0.2,0.4,0.4c0.5,0.8,0.3,1.8-0.5,2.3c-0.8,0.5-1.8,0.3-2.3-0.5c-0.5-0.7-0.3-1.7,0.4-2.2V237l4.6-6.8v-35.7
			C159.9,194.2,157.4,194.4,155.1,194.9"/>
		<path class="st7" d="M233.9,167.2c0-3.1-2.5-5.6-5.6-5.6c-3.1,0-5.6,2.5-5.6,5.6c0,3.1,2.5,5.6,5.6,5.6
			C231.5,172.8,233.9,170.3,233.9,167.2"/>
		<path class="st7" d="M148.7,141.1c3.1,0,5.6-2.5,5.6-5.6c0-3.1-2.5-5.6-5.6-5.6c-3.1,0-5.6,2.5-5.6,5.6
			C143.2,138.5,145.6,141.1,148.7,141.1"/>
		<path class="st7" d="M135.1,200.5c-3.1-27,4.5-46.7,9.7-56.5c-0.8-0.4-1.6-0.9-2.2-1.4c-1.8,3.3-3.8,7.7-5.6,13.1
			c-3.5,10.2-6.7,25.9-4.4,45.5C133.3,200.8,134.2,200.6,135.1,200.5"/>
		<path class="st7" d="M193.9,145.2c-3.7,5.3-7.2,11.7-9.4,19.4c-20.7,6-35.3,21.5-45,36.5c0.8,0.3,1.6,0.8,2.3,1.3
			c11.6-17.9,25.8-29.7,42-34.9c-2.1,8.8-2.6,19-0.2,30.8c0.8-0.4,1.6-0.7,2.5-0.9c-2.2-10.9-2-21.2,0.6-30.7
			c2.9-0.8,5.9-1.4,8.9-1.7c9.5-1.1,17.9,0.1,23.6,1.5c0.1-0.9,0.3-1.8,0.6-2.6c-5.9-1.5-14.5-2.7-24.4-1.6
			c-2.7,0.3-5.4,0.8-7.9,1.4c2-6.2,5-12,9-17.5c11,5.1,19.1,11.3,24.1,16c0.5-0.7,1-1.4,1.7-2c-5.1-4.7-13.2-11-24.2-16.1
			c0.5-0.7,1.1-1.4,1.6-2c6.2-7.4,13.2-12.6,18.3-15.7c-0.5-0.7-1-1.4-1.3-2.3c-5.2,3.3-12.4,8.6-18.9,16.2
			c-0.7,0.9-1.5,1.8-2.2,2.7c-10.2-4.4-22.6-7.8-37.4-8.3c0,0.2,0,0.5,0,0.7c0,0.7-0.1,1.3-0.2,1.9
			C172.1,137.8,184.1,141,193.9,145.2"/>
		<path class="st7" d="M143.1,202.1c-0.2,0.2-0.4,0.5-0.7,0.8c1.9,1.7,3.1,4.2,3.1,6.9c0,3.9-2.4,7.3-5.8,8.7c2,3.1,4.4,6.1,7.1,8.9
			c2.6,2.8,4.7,5.8,6.3,8.9v-40.8C149.4,196.8,145.9,198.9,143.1,202.1"/>
		<path class="st7" d="M170.6,151.8c0-1.7-1.3-3-3-3c-1.7,0-3,1.3-3,3c0,1.7,1.3,3,3,3C169.3,154.9,170.6,153.5,170.6,151.8"/>
		<path class="st7" d="M191.3,128c1.7,0,3-1.3,3-3c0-1.7-1.3-3-3-3c-1.7,0-3,1.3-3,3C188.3,126.6,189.6,128,191.3,128"/>
		<path class="st7" d="M149.7,171.5c0-1.7-1.3-3-3-3c-1.7,0-3,1.3-3,3c0,1.7,1.3,3,3,3C148.3,174.5,149.7,173.1,149.7,171.5"/>
		<path class="st7" d="M178.4,206.6c0-0.9,0.1-1.8,0.4-2.6c-0.6-0.6-1.2-1.2-1.9-1.9c-2.2-2.4-4.7-4.2-7.4-5.5v10.1l4.8,7.2v6.6
			c0.3,0.3,0.5,0.7,0.5,1.2c0,0.9-0.7,1.6-1.6,1.6c-0.9,0-1.6-0.7-1.6-1.6c0-0.5,0.2-1,0.6-1.3v-5.9l-2.7-4.2v66.8
			c0.9,0.3,1.7,0.6,2.8,0.9v-47.8c-0.4-0.3-0.6-0.7-0.6-1.2c0-0.9,0.7-1.6,1.6-1.6c0.9,0,1.6,0.7,1.6,1.6c0,0.5-0.2,0.9-0.5,1.2
			v48.4c0.7,0.2,1.6,0.4,2.4,0.5v-62.5l3.8-3.9C179.3,211,178.4,208.9,178.4,206.6"/>
	</g>
</g>
</svg>
